<svg width="16" height="16" viewBox="0 0 16 16" fill="none" xmlns="http://www.w3.org/2000/svg">
<path fill-rule="evenodd" clip-rule="evenodd" d="M14.4715 4.86201C14.7318 5.12236 14.7318 5.54447 14.4715 5.80482L5.80482 14.4715C5.54447 14.7318 5.12236 14.7318 4.86201 14.4715C4.60166 14.2111 4.60166 13.789 4.86201 13.5287L13.5287 4.86201C13.789 4.60166 14.2111 4.60166 14.4715 4.86201ZM14.4715 9.52868C14.7318 9.78903 14.7318 10.2111 14.4715 10.4715L10.4715 14.4715C10.2111 14.7318 9.78903 14.7318 9.52868 14.4715C9.26833 14.2111 9.26833 13.789 9.52868 13.5287L13.5287 9.52868C13.789 9.26833 14.2111 9.26833 14.4715 9.52868Z" fill="#8F8881"/>
</svg>
